<svg xmlns="http://www.w3.org/2000/svg" xmlns:xlink="http://www.w3.org/1999/xlink" version="1.1" x="0px" y="0px"
     viewBox="0 0 100 125" style="enable-background:new 0 0 100 100;" xml:space="preserve"><g><path d="M94.794,50.56c-0.014-0.258-0.021-0.511-0.039-0.771c-0.673-9.881-3.483-23.529-13.053-32.434   c-1.739-1.618-3.611-2.933-5.581-4.03c-0.098-0.071-0.202-0.135-0.32-0.182c-0.001-0.001-0.003-0.001-0.004-0.001   C69.742,9.867,62.734,8.711,55.44,7.966c-0.258-0.496-0.777-0.833-1.366-0.805c-1.778,0.049-3.597,0.103-5.437,0.192   c-0.063-0.121-0.142-0.234-0.238-0.336C48.016,6.61,47.439,6.45,46.9,6.6c-0.601,0.169-1.064,0.503-1.364,0.944   c-8.249,0.634-16.758,2.424-24.056,8.614c-4.051,3.436-7.47,7.973-10.111,13.183c-0.33-0.062-0.678-0.017-0.988,0.152   c-0.603,0.327-0.908,1.02-0.74,1.685c0.038,0.151,0.058,0.298,0.062,0.451c0.008,0.28,0.095,0.537,0.235,0.758   c-2.838,6.637-4.459,14.167-4.546,21.861c-0.002,0.142,0.007,0.279,0.007,0.421c-0.13,0.219-0.269,0.446-0.393,0.659   c-0.392,0.677-0.19,1.528,0.436,1.971c0.245,5.469,1.346,10.47,3.19,14.903c-0.155,0.404-0.14,0.869,0.09,1.275   c0.18,0.316,0.459,0.536,0.775,0.656c3.292,6.773,8.474,12.032,15.284,15.221c0.211,0.099,0.431,0.182,0.643,0.277   c0.044,0.021,0.086,0.041,0.133,0.057c7.38,3.308,15.754,4.983,24.543,4.983c8.492-0.001,17.364-1.549,26.071-4.651   c0.686-0.245,1.082-0.937,0.98-1.631c4.037-2.747,7.194-6.706,9.7-10.274c5.668-8.068,8.181-16.068,8.012-25.607   C95.33,51.923,95.289,51.099,94.794,50.56z M91.763,49.994c0.033,0.483,0.053,0.956,0.073,1.429   c-1.329,1.486-2.428,2.382-4.125,2.468c-2.682,0.136-4.544,0.471-5.947,3.757c-0.496,1.159-0.806,2.461-1.105,3.72   c-0.432,1.815-0.878,3.692-1.848,4.875c-0.023,0.029-0.046,0.055-0.066,0.078c-0.114-0.116-0.282-0.305-0.524-0.612l-0.228-0.3   c-0.638-0.854-1.095-1.169-2.392-1.229c-1.73-0.083-3.797,0.665-4.968,1.443c-2.484,1.649-3.425,4.587-3.777,6.762l-0.035,0.202   c-0.107,0.594-0.33,1.814,0.047,2.731c-1.124,3.857-3.519,7.331-7.298,10.599c-2.524,2.181-5.463,4.273-8.496,3.953   c0.409-1.098,1.023-2.222,1.624-3.319c1.918-3.505,4.546-8.306-1.693-12.062c-0.506-0.305-1.046-0.605-1.598-0.912   c-3.64-2.025-5.801-3.47-5.125-6.447c0.916-4.036,6.052-8.058,10.193-8.058c2.197,0.023,3.314,1.301,4.729,2.918   c0.928,1.06,1.979,2.261,3.432,3.128c1.306,0.781,2.774,0.967,4.242,0.535c2.874-0.84,5.247-3.845,6.405-6.164   c1.196-2.395,1.369-4.823,0.476-6.662c-0.539-1.107-1.721-2.537-4.294-3.065c-2.937-0.601-6.004,0.033-8.469,0.542   c-0.647,0.134-1.131,0.675-1.19,1.334c-0.048,0.536,0.194,1.047,0.617,1.352c-0.084,0.272-0.309,0.658-0.48,0.785   c-1.06,0.785-3.045,0.678-4.454,0.241c-0.738-0.221-1.418-0.573-2.002-1.035c-0.369-0.301-0.693-0.651-0.963-1.043   c-0.125-0.182-0.288-0.333-0.479-0.444c-0.119-0.069-0.21-0.129-0.284-0.176c-0.968-0.624-1.609-0.467-2.451,0.032l-0.326,0.191   c-0.185,0.105-0.385,0.231-0.597,0.364c-0.375,0.235-1.094,0.688-1.502,0.774c0.088-0.278,0.304-0.767,0.825-1.561   c0.358-0.545,0.322-1.26-0.089-1.767c-0.41-0.506-1.101-0.689-1.71-0.454c-1.172,0.459-1.931-1.119-2.071-1.44   c-0.487-1.12-0.406-2.251-0.031-2.435c0.229-0.041,0.97,0.383,1.365,0.605c0.77,0.433,1.642,0.923,2.611,0.955   c3.445,0.157,4.908-5.209,5.165-6.277c0.169-0.707-0.192-1.433-0.857-1.724l-0.243-0.106c-2.038-0.887-3.297-1.529-3.599-2.965   c-0.405-1.923,0.974-4.232,2.399-5.752c1.59-1.696,3.635-2.764,5.611-2.928c1.553-0.129,2.427,0.19,2.524,0.368   c0.088,0.256-0.161,1.129-0.31,1.651c-0.357,1.254-0.764,2.675-0.024,3.934c0.436,0.742,1.172,1.239,2.188,1.479   c2.812,0.665,5.614-1.681,7.472-3.764c2.372-2.661,6.062-9.881,7.833-13.801c1.298,0.825,2.542,1.762,3.718,2.857   C88.51,27.789,91.126,40.653,91.763,49.994z M58.62,57.31c1.114-0.116,2.202-0.457,3.105-1.126c0.878-0.65,1.696-2.006,1.728-3.31   c1.799-0.324,3.682-0.53,5.407-0.175c1.104,0.227,1.844,0.71,2.198,1.438c0.477,0.979,0.304,2.479-0.461,4.01   c-0.957,1.916-2.832,4.12-4.563,4.626c-0.675,0.196-1.268,0.123-1.861-0.231c-1.047-0.625-1.855-1.55-2.713-2.528   C60.638,59.073,59.76,58.069,58.62,57.31z M44.822,10.608c-1.419,4.027-2.975,8.087-5.243,11.696   c-2.682,4.268-3.924,4.445-4.425,4.178c-1.063-0.574-1.33-3.643-1.459-5.118c-0.036-0.417-0.07-0.799-0.109-1.123   c-0.236-1.941-0.595-4.438-1.295-7.01C36.318,11.694,40.545,10.979,44.822,10.608z M23.421,18.446   c1.946-1.651,3.987-2.944,6.091-3.987c0.575,2.236,0.886,4.419,1.096,6.143c0.036,0.295,0.066,0.642,0.099,1.022   c0.213,2.451,0.536,6.155,3.022,7.497c0.604,0.326,1.195,0.468,1.768,0.468c3.048,0,5.575-4.021,6.656-5.742   c2.642-4.203,4.335-8.89,5.929-13.468c1.306-0.069,2.612-0.117,3.916-0.157c0.245,0.286,0.595,0.482,0.999,0.519   c7.54,0.7,14.434,1.599,20.318,4.484C71.56,19.179,67.88,26.244,65.869,28.5c-1.75,1.962-3.523,3.077-4.545,2.84   c-0.175-0.041-0.276-0.076-0.283-0.081c-0.056-0.285,0.176-1.097,0.316-1.588c0.353-1.237,0.753-2.639,0.064-3.898   c-1.083-1.984-3.856-2.065-5.412-1.933c-2.747,0.229-5.429,1.602-7.551,3.865c-0.943,1.005-3.957,4.583-3.147,8.423   c0.546,2.592,2.504,4.008,4.362,4.872C49.11,42.579,48.308,44,47.887,44c-0.002,0-0.005,0-0.007,0c-0.235,0-0.838-0.556-1.237-0.78   c-1.084-0.61-2.57-1.551-4.123-0.802c-2.274,1.098-2.442,3.968-1.433,6.287c0.664,1.525,1.733,2.561,2.956,3.031   c-0.257,0.781-0.328,1.571-0.016,2.32c0.197,0.473,0.728,1.301,2.075,1.576c1.5,0.303,2.878-0.557,3.88-1.186   c0.163-0.103,0.318-0.202,0.461-0.286c0.343,0.421,0.731,0.806,1.165,1.158c0.415,0.329,0.856,0.618,1.317,0.867   c-5.111,0.779-10.46,5.385-11.571,10.278c-1.223,5.385,3.294,7.897,6.592,9.732c0.521,0.29,1.032,0.574,1.509,0.861   c3.62,2.18,2.804,4.044,0.609,8.053c-0.967,1.769-1.968,3.597-2.333,5.589c-0.059,0.323,0.004,0.639,0.139,0.917   c-7.289-0.247-14.222-1.709-20.426-4.381c-0.488-4.381-1.609-6.965-3.264-10.716L23.4,74.741c-0.955-2.204-2.263-5.223-5.258-6.045   c-2.512-0.69-5.013,0.499-7.015,1.651c-1.723-4.396-2.65-9.403-2.715-14.874c0.038-0.063,0.072-0.122,0.11-0.185   c1.912-3.164,4.079-6.75,3.993-10.576c-0.017-0.775-0.277-1.503-0.529-2.207c-0.157-0.438-0.419-1.172-0.363-1.391   c0.121-0.311,0.694-0.709,1.2-1.061c0.833-0.579,1.869-1.298,2.389-2.502c1.055-2.439-0.19-4.535-1.545-6.145   C15.998,26.563,19.183,22.04,23.421,18.446z M9.437,44.358c0.043,0.161,0.076,0.31,0.079,0.421   c0.026,1.153-0.257,2.341-0.706,3.528C8.969,47.012,9.178,45.694,9.437,44.358z M12.266,34.617c0.323,0.614,0.432,1.19,0.192,1.744   c-0.171,0.395-0.687,0.768-1.249,1.159C11.529,36.547,11.885,35.58,12.266,34.617z M12.355,73.102   c1.626-0.953,3.502-1.926,4.991-1.513c1.61,0.442,2.547,2.606,3.301,4.345l0.788,1.797c1.322,2.994,2.233,5.08,2.757,7.94   C19.043,82.795,15.046,78.492,12.355,73.102z M84.397,76.388c-3.642,5.185-8.729,11.268-15.804,12.301   c-0.498,0.073-0.9,0.384-1.114,0.8c-3.418,0.843-6.831,1.438-10.208,1.789c1.559-0.877,2.991-1.997,4.257-3.092   c4.504-3.893,7.267-8.106,8.447-12.882c0.098-0.395,0.031-0.811-0.184-1.155c-0.043-0.068-0.092-0.134-0.145-0.194   c0.022-0.278,0.091-0.659,0.122-0.832l0.046-0.261c0.21-1.296,0.811-3.635,2.475-4.739c0.835-0.555,2.312-0.986,3.168-0.947   c0.04,0.002,0.077,0.004,0.111,0.006c0.006,0.007,0.011,0.015,0.017,0.022c0.077,0.103,0.166,0.222,0.273,0.358   c0.552,0.702,1.475,1.877,2.874,1.892c0.836-0.023,1.677-0.432,2.396-1.309c1.408-1.719,1.936-3.938,2.446-6.083   c0.282-1.188,0.55-2.311,0.945-3.235c0.749-1.754,1.18-1.83,3.34-1.939c1.631-0.082,2.906-0.634,3.98-1.392   C91.499,63.138,89.153,69.618,84.397,76.388z"/></g>
</svg>
