<svg xmlns="http://www.w3.org/2000/svg" xmlns:xlink="http://www.w3.org/1999/xlink" version="1.1" x="0px" y="0px" viewBox="0 0 512 640" enable-background="new 0 0 512 512" xml:space="preserve"><g><path fill="#000000" d="M256,0C114.609,0,0,114.617,0,256c0,141.391,114.609,256,256,256s256-114.609,256-256   C512,114.617,397.391,0,256,0z M421.938,421.938c-21.562,21.547-46.656,38.484-74.594,50.297   c-28.922,12.234-59.656,18.438-91.344,18.438c-29,0-57.188-5.219-83.906-15.469c3.234,0.078,6.594,0.125,10.141,0.125   c15.938,0,34.984-0.781,57.703-2.688c57.672-4.844,107.188-35.641,109.266-36.938v-0.016c3-1.891,4.984-5.219,4.984-9.016   c0-5.906-4.766-10.672-10.656-10.672c-2.094,0-4.031,0.609-5.688,1.641c0,0-47.141,29.328-99.688,33.75   c-82.625,6.938-112.156-2.031-119.5-5.094C108.562,439,99,430.859,90.062,421.938c-21.562-21.562-38.484-46.656-50.297-74.609   C27.531,318.422,21.328,287.688,21.328,256s6.203-62.422,18.438-91.336c9.609-22.703,22.578-43.531,38.672-62.109   c4.062,5.234,11.75,13.086,25.078,20.234c21.219,11.383,48.859,17.102,82.406,17.102c9.016,0,18.453-0.406,28.297-1.234   c55.281-4.641,105.234-20.602,109.094-21.859c4.266-1.391,7.359-5.398,7.359-10.133C330.672,100.773,325.891,96,320,96   c-1.156,0-2.281,0.188-3.312,0.531c-0.5,0.164-50.375,16.344-104.25,20.867c-51.188,4.297-80.938-4.367-96.859-12.391   c-16.672-8.383-21.844-17.766-21.891-17.859c0.062,0.117,0.094,0.18,0.094,0.18l-1.812,0.883   c21.125-20.672,45.562-36.969,72.688-48.445c28.922-12.234,59.656-18.43,91.344-18.43s62.422,6.195,91.344,18.43   c27.938,11.82,53.031,28.742,74.594,50.297c21.562,21.562,38.484,46.656,50.297,74.602c12.234,28.914,18.438,59.648,18.438,91.336   c0,18.578-2.156,36.797-6.375,54.547c-10.391,2.406-42.078,9.125-86.141,12.812C297.344,331.828,262,311.172,261.641,310.953   c-1.656-1.062-3.516-1.625-5.641-1.625c-5.891,0-10.672,4.781-10.672,10.672c0,3.766,1.969,7.078,4.922,8.969   c1.078,0.703,11.297,6.953,34.906,11.844c19.188,3.969,41.453,5.953,66.578,5.953c15.062,0,31.156-0.719,48.203-2.156   c34.672-2.906,61.625-7.547,77.5-10.75c-1.594,4.531-3.312,9.031-5.203,13.469C460.422,375.281,443.5,400.375,421.938,421.938z"/><path fill="#000000" d="M384,266.672c35.344,0,64-23.883,64-53.336C448,183.875,419.344,160,384,160s-64,23.875-64,53.336   C320,242.789,348.656,266.672,384,266.672z M352.406,192.008c8.141-6.781,19.656-10.672,31.594-10.672s23.453,3.891,31.594,10.672   c7.141,5.953,11.078,13.523,11.078,21.328c0,7.797-3.938,15.375-11.078,21.32c-8.141,6.789-19.656,10.68-31.594,10.68   s-23.453-3.891-31.594-10.68c-7.141-5.945-11.078-13.523-11.078-21.32C341.328,205.531,345.266,197.961,352.406,192.008z"/><path fill="#000000" d="M184.344,352c-23.562,0-42.672,14.328-42.672,32s19.109,32,42.672,32S227,401.672,227,384   S207.906,352,184.344,352z M184.344,394.672C171.109,394.672,163,387.766,163,384s8.109-10.672,21.344-10.672   s21.328,6.906,21.328,10.672S197.578,394.672,184.344,394.672z"/><path fill="#000000" d="M163.828,234.664c0-23.562-23.891-42.664-53.344-42.664s-53.328,19.102-53.328,42.664   s23.875,42.664,53.328,42.664S163.828,258.227,163.828,234.664z M134.875,248.18c-6.219,4.969-15.109,7.82-24.391,7.82   s-18.172-2.852-24.375-7.82c-2.844-2.273-7.625-7.055-7.625-13.516c0-6.453,4.781-11.234,7.625-13.508   c6.203-4.969,15.094-7.82,24.375-7.82s18.172,2.852,24.391,7.82c2.844,2.273,7.609,7.055,7.609,13.508   C142.484,241.125,137.719,245.906,134.875,248.18z"/><path fill="#000000" d="M323.312,116.797C323.344,116.789,323.422,116.766,323.312,116.797L323.312,116.797z"/></g><text x="0" y="527" fill="#000000" font-size="5px" font-weight="bold" font-family="'Helvetica Neue', Helvetica, Arial-Unicode, Arial, Sans-serif">Created by lastspark</text><text x="0" y="532" fill="#000000" font-size="5px" font-weight="bold" font-family="'Helvetica Neue', Helvetica, Arial-Unicode, Arial, Sans-serif">from the Noun Project</text></svg>